<mxfile host="Electron" modified="2023-07-19T17:13:46.595Z" agent="Mozilla/5.0 (X11; Linux x86_64) AppleWebKit/537.36 (KHTML, like Gecko) draw.io/21.2.8 Chrome/112.0.5615.165 Electron/24.2.0 Safari/537.36" etag="-3CIAUjsI6EaDN8xPh1Q" version="21.2.8" type="device">
  <diagram id="Hmk5Zw9A1GQ4JxEHmyl6" name="Page-1">
    <mxGraphModel dx="1743" dy="1806" grid="1" gridSize="10" guides="1" tooltips="0" connect="1" arrows="1" fold="1" page="1" pageScale="1" pageWidth="1100" pageHeight="850" math="0" shadow="0">
      <root>
        <mxCell id="0" />
        <mxCell id="1" parent="0" />
        <mxCell id="zscdlpqPajmLokwu26Zh-9" value="&lt;span style=&quot;background-color: rgb(0, 80, 239);&quot;&gt;&lt;font color=&quot;#ffffff&quot; style=&quot;font-size: 14px&quot;&gt;&amp;nbsp;Secret Deployment Steps i&lt;/font&gt;&lt;font color=&quot;#ffffff&quot; style=&quot;font-size: 14px&quot;&gt;n&lt;/font&gt;&lt;font color=&quot;#ff0000&quot; style=&quot;font-size: 14px&quot;&gt; &lt;/font&gt;&lt;font color=&quot;#000000&quot; style=&quot;font-size: 14px&quot;&gt;BLACK&amp;nbsp;&lt;/font&gt;&lt;/span&gt;" style="swimlane;html=1;childLayout=stackLayout;resizeParent=1;resizeParentMax=0;startSize=20;glass=0;comic=0;shadow=1;" parent="1" vertex="1">
          <mxGeometry x="100" y="-760" width="900" height="630" as="geometry" />
        </mxCell>
        <mxCell id="zscdlpqPajmLokwu26Zh-10" value="IPOPS" style="swimlane;html=1;startSize=20;glass=0;comic=0;shadow=1;" parent="zscdlpqPajmLokwu26Zh-9" vertex="1">
          <mxGeometry y="20" width="300" height="610" as="geometry" />
        </mxCell>
        <mxCell id="zscdlpqPajmLokwu26Zh-33" value="&lt;p style=&quot;margin: 6px 0px 0px ; text-align: center ; font-size: 14px&quot;&gt;&lt;b&gt;&lt;font style=&quot;font-size: 14px&quot;&gt;Authenticates with Vault&lt;/font&gt;&lt;/b&gt;&lt;/p&gt;&lt;hr style=&quot;font-size: 14px&quot;&gt;&lt;p style=&quot;margin: 0px ; margin-left: 8px&quot;&gt;&lt;b&gt;Requires:&lt;/b&gt;&lt;/p&gt;&lt;p style=&quot;margin: 0px ; margin-left: 8px&quot;&gt;&lt;b style=&quot;&quot;&gt;&lt;font color=&quot;#000000&quot;&gt;Vault URL&lt;/font&gt;&lt;/b&gt;&lt;/p&gt;&lt;p style=&quot;margin: 0px ; margin-left: 8px&quot;&gt;&lt;b&gt;&lt;font color=&quot;#000000&quot;&gt;Vault namespace&lt;/font&gt;&lt;/b&gt;&lt;/p&gt;&lt;p style=&quot;margin: 0px ; margin-left: 8px&quot;&gt;&lt;b style=&quot;&quot;&gt;&lt;font color=&quot;#000000&quot;&gt;Vault role and secret id&lt;/font&gt;&lt;/b&gt;&lt;/p&gt;" style="align=left;overflow=fill;html=1;shadow=1;glass=0;comic=0;fontFamily=Helvetica;fillColor=#0050ef;fontColor=#ffffff;strokeColor=#001DBC;" parent="zscdlpqPajmLokwu26Zh-10" vertex="1">
          <mxGeometry x="40" y="70" width="220" height="110" as="geometry" />
        </mxCell>
        <mxCell id="zscdlpqPajmLokwu26Zh-34" value="" style="shape=component;jettyWidth=8;jettyHeight=4;" parent="zscdlpqPajmLokwu26Zh-33" vertex="1">
          <mxGeometry x="1" width="20" height="20" relative="1" as="geometry">
            <mxPoint x="-24" y="4" as="offset" />
          </mxGeometry>
        </mxCell>
        <mxCell id="zscdlpqPajmLokwu26Zh-46" style="edgeStyle=orthogonalEdgeStyle;rounded=0;orthogonalLoop=1;jettySize=auto;html=1;exitX=0.5;exitY=1;exitDx=0;exitDy=0;entryX=0;entryY=0.5;entryDx=0;entryDy=0;fontFamily=Helvetica;" parent="zscdlpqPajmLokwu26Zh-10" source="zscdlpqPajmLokwu26Zh-33" edge="1">
          <mxGeometry relative="1" as="geometry">
            <Array as="points">
              <mxPoint x="150" y="300" />
              <mxPoint x="280" y="300" />
              <mxPoint x="280" y="115" />
            </Array>
            <mxPoint x="150" y="190" as="sourcePoint" />
            <mxPoint x="355" y="115" as="targetPoint" />
          </mxGeometry>
        </mxCell>
        <mxCell id="p1YHRfJYH90jtmbz97i9-4" value="&lt;span style=&quot;color: rgb(255, 255, 255); font-size: 12px;&quot;&gt;Initiates&lt;br&gt;&amp;nbsp; Deployment Tool&amp;nbsp;&amp;nbsp;&lt;/span&gt;" style="edgeLabel;html=1;align=center;verticalAlign=middle;resizable=0;points=[];fontColor=#000000;labelBorderColor=#0050EF;labelBackgroundColor=#0050EF;" parent="zscdlpqPajmLokwu26Zh-46" vertex="1" connectable="0">
          <mxGeometry x="-0.1639" y="-3" relative="1" as="geometry">
            <mxPoint x="-93" y="-73" as="offset" />
          </mxGeometry>
        </mxCell>
        <mxCell id="zscdlpqPajmLokwu26Zh-11" value="Deployment Tool" style="swimlane;html=1;startSize=20;glass=0;comic=0;shadow=1;" parent="zscdlpqPajmLokwu26Zh-9" vertex="1">
          <mxGeometry x="300" y="20" width="300" height="610" as="geometry" />
        </mxCell>
        <mxCell id="zscdlpqPajmLokwu26Zh-51" value="Ephermeral container&lt;br&gt;exits and destroys&lt;br&gt;&amp;nbsp;its contents" style="rounded=1;whiteSpace=wrap;html=1;shadow=1;glass=0;comic=0;fillColor=#0050ef;fontFamily=Helvetica;fontColor=#ffffff;strokeColor=#001DBC;" parent="zscdlpqPajmLokwu26Zh-11" vertex="1">
          <mxGeometry x="80" y="520" width="140" height="60" as="geometry" />
        </mxCell>
        <mxCell id="zscdlpqPajmLokwu26Zh-52" value="Completes &lt;br&gt;deployment" style="text;html=1;strokeColor=#001DBC;fillColor=#0050ef;align=center;verticalAlign=middle;whiteSpace=wrap;rounded=0;shadow=1;glass=0;comic=0;fontFamily=Helvetica;fontColor=#ffffff;" parent="zscdlpqPajmLokwu26Zh-11" vertex="1">
          <mxGeometry x="97.5" y="460" width="105" height="30" as="geometry" />
        </mxCell>
        <mxCell id="zscdlpqPajmLokwu26Zh-54" style="edgeStyle=none;rounded=0;orthogonalLoop=1;jettySize=auto;html=1;exitX=0.5;exitY=1;exitDx=0;exitDy=0;entryX=0.5;entryY=0;entryDx=0;entryDy=0;fontFamily=Helvetica;startArrow=none;" parent="zscdlpqPajmLokwu26Zh-11" source="zscdlpqPajmLokwu26Zh-52" target="zscdlpqPajmLokwu26Zh-51" edge="1">
          <mxGeometry relative="1" as="geometry" />
        </mxCell>
        <mxCell id="zscdlpqPajmLokwu26Zh-30" value="&lt;p style=&quot;margin: 0px ; margin-top: 6px ; text-align: center&quot;&gt;&lt;b&gt;Ephemeral Container&lt;/b&gt;&lt;/p&gt;&lt;hr&gt;&lt;p style=&quot;margin: 0px ; margin-left: 8px&quot;&gt;&lt;b&gt;Generates:&lt;/b&gt;&lt;/p&gt;&lt;p style=&quot;margin: 0px ; margin-left: 8px&quot;&gt;&lt;b&gt;&lt;font color=&quot;#000000&quot;&gt;List of all required Vault secrets&lt;br&gt;&lt;/font&gt;&lt;/b&gt;&lt;/p&gt;&lt;p style=&quot;margin: 0px ; margin-left: 8px&quot;&gt;&lt;br&gt;&lt;/p&gt;&lt;p style=&quot;margin: 0px ; margin-left: 8px&quot;&gt;&lt;b&gt;Delivers:&lt;/b&gt;&lt;/p&gt;&lt;p style=&quot;margin: 0px ; margin-left: 8px&quot;&gt;&lt;b style=&quot;&quot;&gt;&lt;font color=&quot;#000000&quot;&gt;Secrets to Kubernetes&lt;/font&gt;&lt;/b&gt;&lt;/p&gt;&lt;p style=&quot;margin: 0px ; margin-left: 8px&quot;&gt;GenCTL/RIAS containers&lt;br&gt;&lt;/p&gt;" style="align=left;overflow=fill;html=1;shadow=1;glass=0;comic=0;fontFamily=Helvetica;fillColor=#0050ef;fontColor=#ffffff;strokeColor=#001DBC;rounded=1;" parent="zscdlpqPajmLokwu26Zh-11" vertex="1">
          <mxGeometry x="57.5" y="270" width="185" height="160" as="geometry" />
        </mxCell>
        <mxCell id="zscdlpqPajmLokwu26Zh-31" value="" style="shape=component;jettyWidth=8;jettyHeight=4;" parent="zscdlpqPajmLokwu26Zh-30" vertex="1">
          <mxGeometry x="1" width="20" height="20" relative="1" as="geometry">
            <mxPoint x="-24" y="4" as="offset" />
          </mxGeometry>
        </mxCell>
        <mxCell id="p1YHRfJYH90jtmbz97i9-8" value="" style="edgeStyle=none;rounded=0;orthogonalLoop=1;jettySize=auto;html=1;exitX=0.5;exitY=1;exitDx=0;exitDy=0;entryX=0.5;entryY=0;entryDx=0;entryDy=0;fontFamily=Helvetica;endArrow=none;" parent="zscdlpqPajmLokwu26Zh-11" source="zscdlpqPajmLokwu26Zh-30" target="zscdlpqPajmLokwu26Zh-52" edge="1">
          <mxGeometry relative="1" as="geometry">
            <mxPoint x="150" y="410" as="sourcePoint" />
            <mxPoint x="150" y="500" as="targetPoint" />
          </mxGeometry>
        </mxCell>
        <mxCell id="zscdlpqPajmLokwu26Zh-39" value="Starts ephemeral container with provided inputs" style="text;html=1;strokeColor=#001DBC;fillColor=#0050ef;align=center;verticalAlign=middle;whiteSpace=wrap;rounded=0;shadow=1;glass=0;comic=0;fontFamily=Helvetica;fontColor=#ffffff;" parent="zscdlpqPajmLokwu26Zh-11" vertex="1">
          <mxGeometry x="90" y="190" width="120" height="50" as="geometry" />
        </mxCell>
        <mxCell id="zscdlpqPajmLokwu26Zh-12" value="Kubernetes" style="swimlane;html=1;startSize=20;glass=0;comic=0;shadow=1;" parent="zscdlpqPajmLokwu26Zh-9" vertex="1">
          <mxGeometry x="600" y="20" width="300" height="610" as="geometry" />
        </mxCell>
        <mxCell id="p1YHRfJYH90jtmbz97i9-1" value="Starts Service pods which read Secrets from K8s" style="text;html=1;strokeColor=#001DBC;fillColor=#0050ef;align=center;verticalAlign=middle;whiteSpace=wrap;rounded=0;shadow=1;glass=0;comic=0;fontFamily=Helvetica;fontColor=#ffffff;" parent="zscdlpqPajmLokwu26Zh-12" vertex="1">
          <mxGeometry x="115" y="330" width="120" height="50" as="geometry" />
        </mxCell>
        <mxCell id="p1YHRfJYH90jtmbz97i9-2" style="edgeStyle=orthogonalEdgeStyle;rounded=0;orthogonalLoop=1;jettySize=auto;html=1;exitX=0.5;exitY=1;exitDx=0;exitDy=0;entryX=0.5;entryY=0;entryDx=0;entryDy=0;fontColor=#000000;" parent="zscdlpqPajmLokwu26Zh-12" source="zscdlpqPajmLokwu26Zh-47" target="p1YHRfJYH90jtmbz97i9-1" edge="1">
          <mxGeometry relative="1" as="geometry" />
        </mxCell>
        <mxCell id="zscdlpqPajmLokwu26Zh-47" value="&lt;p style=&quot;margin: 0px ; margin-top: 6px ; text-align: center&quot;&gt;&lt;b&gt;Master Node&lt;/b&gt;&lt;/p&gt;&lt;hr&gt;&lt;p style=&quot;margin: 0px ; margin-left: 8px&quot;&gt;&lt;b&gt;Consumes:&lt;/b&gt;&lt;/p&gt;&lt;p style=&quot;margin: 0px ; margin-left: 8px&quot;&gt;&lt;font color=&quot;#000000&quot;&gt;&lt;b&gt;Secrets&lt;/b&gt;&lt;/font&gt;&lt;/p&gt;&lt;p style=&quot;margin: 0px ; margin-left: 8px&quot;&gt;Service Pods to start&lt;/p&gt;" style="align=left;overflow=fill;html=1;shadow=1;glass=0;comic=0;fillColor=#0050ef;fontFamily=Helvetica;fontColor=#ffffff;strokeColor=#001DBC;rounded=1;" parent="zscdlpqPajmLokwu26Zh-12" vertex="1">
          <mxGeometry x="100" y="190" width="150" height="90" as="geometry" />
        </mxCell>
        <mxCell id="zscdlpqPajmLokwu26Zh-48" value="" style="shape=component;jettyWidth=8;jettyHeight=4;" parent="zscdlpqPajmLokwu26Zh-47" vertex="1">
          <mxGeometry x="1" width="20" height="20" relative="1" as="geometry">
            <mxPoint x="-24" y="4" as="offset" />
          </mxGeometry>
        </mxCell>
        <mxCell id="p1YHRfJYH90jtmbz97i9-10" style="edgeStyle=orthogonalEdgeStyle;rounded=0;orthogonalLoop=1;jettySize=auto;html=1;exitX=1;exitY=0.5;exitDx=0;exitDy=0;fontColor=#FFFFFF;" parent="zscdlpqPajmLokwu26Zh-12" source="zscdlpqPajmLokwu26Zh-50" target="zscdlpqPajmLokwu26Zh-47" edge="1">
          <mxGeometry relative="1" as="geometry" />
        </mxCell>
        <mxCell id="zscdlpqPajmLokwu26Zh-50" value="Provides&lt;br&gt;&amp;nbsp;Service pods,&lt;br&gt;&amp;nbsp;Secrets, etc." style="text;html=1;strokeColor=#001DBC;fillColor=#0050ef;align=center;verticalAlign=middle;whiteSpace=wrap;rounded=0;shadow=1;glass=0;comic=0;fontFamily=Helvetica;fontColor=#ffffff;" parent="zscdlpqPajmLokwu26Zh-12" vertex="1">
          <mxGeometry x="30" y="70" width="95" height="50" as="geometry" />
        </mxCell>
        <mxCell id="p1YHRfJYH90jtmbz97i9-9" style="edgeStyle=orthogonalEdgeStyle;rounded=0;orthogonalLoop=1;jettySize=auto;html=1;exitX=1;exitY=0.5;exitDx=0;exitDy=0;entryX=0;entryY=0.5;entryDx=0;entryDy=0;fontColor=#FFFFFF;" parent="zscdlpqPajmLokwu26Zh-9" source="zscdlpqPajmLokwu26Zh-30" target="zscdlpqPajmLokwu26Zh-50" edge="1">
          <mxGeometry relative="1" as="geometry">
            <Array as="points">
              <mxPoint x="580" y="370" />
              <mxPoint x="580" y="115" />
            </Array>
          </mxGeometry>
        </mxCell>
        <mxCell id="zscdlpqPajmLokwu26Zh-40" style="edgeStyle=orthogonalEdgeStyle;rounded=0;orthogonalLoop=1;jettySize=auto;html=1;fontFamily=Helvetica;" parent="1" source="zscdlpqPajmLokwu26Zh-25" target="zscdlpqPajmLokwu26Zh-30" edge="1">
          <mxGeometry relative="1" as="geometry" />
        </mxCell>
        <mxCell id="zscdlpqPajmLokwu26Zh-25" value="&lt;p style=&quot;margin: 6px 0px 0px ; text-align: center ; font-size: 14px&quot;&gt;&lt;b&gt;&lt;font style=&quot;font-size: 14px&quot;&gt;Deployment Tool&lt;/font&gt;&lt;/b&gt;&lt;/p&gt;&lt;hr style=&quot;font-size: 14px&quot;&gt;&lt;p style=&quot;margin: 0px ; margin-left: 8px&quot;&gt;&lt;b&gt;Requires:&lt;/b&gt;&lt;/p&gt;&lt;p style=&quot;margin: 0px ; margin-left: 8px&quot;&gt;&lt;b style=&quot;&quot;&gt;&lt;font color=&quot;#000000&quot;&gt;Vault Token&lt;/font&gt;&lt;/b&gt;&lt;/p&gt;&lt;p style=&quot;margin: 0px ; margin-left: 8px&quot;&gt;&lt;b style=&quot;&quot;&gt;&lt;font color=&quot;#000000&quot;&gt;Vault Endpoint for the mzone&lt;/font&gt;&lt;/b&gt;&lt;/p&gt;&lt;p style=&quot;margin: 0px ; margin-left: 8px&quot;&gt;Artifactory docker container link&lt;/p&gt;&lt;p style=&quot;margin: 0px ; margin-left: 8px&quot;&gt;Git hash tag of release to deploy&lt;/p&gt;" style="align=left;overflow=fill;html=1;shadow=1;glass=0;comic=0;fontFamily=Helvetica;fillColor=#0050ef;fontColor=#ffffff;strokeColor=#001DBC;rounded=1;sketch=0;" parent="1" vertex="1">
          <mxGeometry x="455" y="-690" width="190" height="110" as="geometry" />
        </mxCell>
        <mxCell id="zscdlpqPajmLokwu26Zh-26" value="" style="shape=component;jettyWidth=8;jettyHeight=4;" parent="zscdlpqPajmLokwu26Zh-25" vertex="1">
          <mxGeometry x="1" width="20" height="20" relative="1" as="geometry">
            <mxPoint x="-24" y="4" as="offset" />
          </mxGeometry>
        </mxCell>
      </root>
    </mxGraphModel>
  </diagram>
</mxfile>
